<?xml version="1.0" encoding="UTF-8"?>
<svg xmlns="http://www.w3.org/2000/svg" width="1160" height="470" viewBox="0 0 1160 470" role="img" aria-labelledby="title desc">
<title id="title">Step 3a: compensate exponent placement with 0x7e80</title>
<desc id="desc">The constant is shown as a BF16 bit pattern and applied by packed BF16 multiply.</desc>
<!-- svg-source:excalidraw -->
<defs>
  <marker id="arrow" viewBox="0 0 10 10" refX="8" refY="5" markerWidth="7" markerHeight="7" orient="auto-start-reverse"><path d="M 0 0 L 10 5 L 0 10 z" fill="#315a9f"/></marker>
  <style>
    .title{font:700 28px Inter,ui-sans-serif,system-ui,sans-serif;fill:#17212b}
    .subtitle{font:500 15px Inter,ui-sans-serif,system-ui,sans-serif;fill:#64748b}
    .label{font:700 14px Inter,ui-sans-serif,system-ui,sans-serif;fill:#17212b}
    .note{font:500 13px Inter,ui-sans-serif,system-ui,sans-serif;fill:#64748b}
    .mono{font:600 13px ui-monospace,SFMono-Regular,Menlo,Consolas,monospace;fill:#334155}
    .bit{font:700 11px ui-monospace,SFMono-Regular,Menlo,Consolas,monospace;fill:#0f172a}
    .tiny{font:600 10px Inter,ui-sans-serif,system-ui,sans-serif;fill:#64748b}
    .chipText{font:700 12px ui-monospace,SFMono-Regular,Menlo,Consolas,monospace;fill:#1e293b}
  </style>
</defs>
<rect width="1160" height="470" rx="18" fill="#f8fbff"/>
<text x="44" y="58" class="title">Step 3a: compensate exponent placement with 0x7e80</text>
<text x="46" y="84" class="subtitle">The constant is shown as a BF16 bit pattern and applied by packed BF16 multiply.</text>
<rect x="44" y="112" width="1072" height="310" rx="12" fill="#ffffff" stroke="#0891b2" stroke-width="2"/><text x="68" y="142" class="label" text-anchor="start">Target BF16-shaped lane after unpacking</text><rect x="86" y="166" width="24" height="24" rx="5" fill="#ede9fe" stroke="#7c3aed" stroke-width="1.4"/><text x="98" y="182" class="bit" text-anchor="middle">S</text><rect x="113" y="166" width="24" height="24" rx="5" fill="#f1f5f9" stroke="#94a3b8" stroke-width="1.4"/><text x="125" y="182" class="bit" text-anchor="middle">0</text><rect x="140" y="166" width="24" height="24" rx="5" fill="#f1f5f9" stroke="#94a3b8" stroke-width="1.4"/><text x="152" y="182" class="bit" text-anchor="middle">0</text><rect x="167" y="166" width="24" height="24" rx="5" fill="#f1f5f9" stroke="#94a3b8" stroke-width="1.4"/><text x="179" y="182" class="bit" text-anchor="middle">0</text><rect x="194" y="166" width="24" height="24" rx="5" fill="#f1f5f9" stroke="#94a3b8" stroke-width="1.4"/><text x="206" y="182" class="bit" text-anchor="middle">0</text><rect x="221" y="166" width="24" height="24" rx="5" fill="#f1f5f9" stroke="#94a3b8" stroke-width="1.4"/><text x="233" y="182" class="bit" text-anchor="middle">0</text><rect x="248" y="166" width="24" height="24" rx="5" fill="#ede9fe" stroke="#7c3aed" stroke-width="1.4"/><text x="260" y="182" class="bit" text-anchor="middle">E</text><rect x="275" y="166" width="24" height="24" rx="5" fill="#ede9fe" stroke="#7c3aed" stroke-width="1.4"/><text x="287" y="182" class="bit" text-anchor="middle">E</text><rect x="302" y="166" width="24" height="24" rx="5" fill="#ede9fe" stroke="#7c3aed" stroke-width="1.4"/><text x="314" y="182" class="bit" text-anchor="middle">M</text><rect x="329" y="166" width="24" height="24" rx="5" fill="#f1f5f9" stroke="#94a3b8" stroke-width="1.4"/><text x="341" y="182" class="bit" text-anchor="middle">0</text><rect x="356" y="166" width="24" height="24" rx="5" fill="#f1f5f9" stroke="#94a3b8" stroke-width="1.4"/><text x="368" y="182" class="bit" text-anchor="middle">0</text><rect x="383" y="166" width="24" height="24" rx="5" fill="#f1f5f9" stroke="#94a3b8" stroke-width="1.4"/><text x="395" y="182" class="bit" text-anchor="middle">0</text><rect x="410" y="166" width="24" height="24" rx="5" fill="#f1f5f9" stroke="#94a3b8" stroke-width="1.4"/><text x="422" y="182" class="bit" text-anchor="middle">0</text><rect x="437" y="166" width="24" height="24" rx="5" fill="#f1f5f9" stroke="#94a3b8" stroke-width="1.4"/><text x="449" y="182" class="bit" text-anchor="middle">0</text><rect x="464" y="166" width="24" height="24" rx="5" fill="#f1f5f9" stroke="#94a3b8" stroke-width="1.4"/><text x="476" y="182" class="bit" text-anchor="middle">0</text><rect x="491" y="166" width="24" height="24" rx="5" fill="#f1f5f9" stroke="#94a3b8" stroke-width="1.4"/><text x="503" y="182" class="bit" text-anchor="middle">0</text><path d="M 300.5 162 L 300.5 194" fill="none" stroke="#cbd5e1" stroke-width="1.5"/><path d="M 86 200 v8 M 86 208 H 110 M 110 200 v8" fill="none" stroke="#94a3b8" stroke-width="1.5"/><text x="98" y="225" class="tiny" text-anchor="middle">sign</text><path d="M 248 200 v8 M 248 208 H 326 M 326 200 v8" fill="none" stroke="#94a3b8" stroke-width="1.5"/><text x="287" y="225" class="tiny" text-anchor="middle">exp bits</text><path d="M 329 200 v8 M 329 208 H 353 M 353 200 v8" fill="none" stroke="#94a3b8" stroke-width="1.5"/><text x="341" y="225" class="tiny" text-anchor="middle">mant</text><text x="86" y="258" class="label" text-anchor="start">Compensation constant aligned to the same 16-bit BF16 lane</text><rect x="86" y="282" width="24" height="24" rx="5" fill="#f1f5f9" stroke="#94a3b8" stroke-width="1.4"/><text x="98" y="298" class="bit" text-anchor="middle">0</text><rect x="113" y="282" width="24" height="24" rx="5" fill="#cffafe" stroke="#0891b2" stroke-width="1.4"/><text x="125" y="298" class="bit" text-anchor="middle">1</text><rect x="140" y="282" width="24" height="24" rx="5" fill="#cffafe" stroke="#0891b2" stroke-width="1.4"/><text x="152" y="298" class="bit" text-anchor="middle">1</text><rect x="167" y="282" width="24" height="24" rx="5" fill="#cffafe" stroke="#0891b2" stroke-width="1.4"/><text x="179" y="298" class="bit" text-anchor="middle">1</text><rect x="194" y="282" width="24" height="24" rx="5" fill="#cffafe" stroke="#0891b2" stroke-width="1.4"/><text x="206" y="298" class="bit" text-anchor="middle">1</text><rect x="221" y="282" width="24" height="24" rx="5" fill="#cffafe" stroke="#0891b2" stroke-width="1.4"/><text x="233" y="298" class="bit" text-anchor="middle">1</text><rect x="248" y="282" width="24" height="24" rx="5" fill="#cffafe" stroke="#0891b2" stroke-width="1.4"/><text x="260" y="298" class="bit" text-anchor="middle">1</text><rect x="275" y="282" width="24" height="24" rx="5" fill="#f1f5f9" stroke="#94a3b8" stroke-width="1.4"/><text x="287" y="298" class="bit" text-anchor="middle">0</text><rect x="302" y="282" width="24" height="24" rx="5" fill="#cffafe" stroke="#0891b2" stroke-width="1.4"/><text x="314" y="298" class="bit" text-anchor="middle">1</text><rect x="329" y="282" width="24" height="24" rx="5" fill="#f1f5f9" stroke="#94a3b8" stroke-width="1.4"/><text x="341" y="298" class="bit" text-anchor="middle">0</text><rect x="356" y="282" width="24" height="24" rx="5" fill="#f1f5f9" stroke="#94a3b8" stroke-width="1.4"/><text x="368" y="298" class="bit" text-anchor="middle">0</text><rect x="383" y="282" width="24" height="24" rx="5" fill="#f1f5f9" stroke="#94a3b8" stroke-width="1.4"/><text x="395" y="298" class="bit" text-anchor="middle">0</text><rect x="410" y="282" width="24" height="24" rx="5" fill="#f1f5f9" stroke="#94a3b8" stroke-width="1.4"/><text x="422" y="298" class="bit" text-anchor="middle">0</text><rect x="437" y="282" width="24" height="24" rx="5" fill="#f1f5f9" stroke="#94a3b8" stroke-width="1.4"/><text x="449" y="298" class="bit" text-anchor="middle">0</text><rect x="464" y="282" width="24" height="24" rx="5" fill="#f1f5f9" stroke="#94a3b8" stroke-width="1.4"/><text x="476" y="298" class="bit" text-anchor="middle">0</text><rect x="491" y="282" width="24" height="24" rx="5" fill="#f1f5f9" stroke="#94a3b8" stroke-width="1.4"/><text x="503" y="298" class="bit" text-anchor="middle">0</text><path d="M 300.5 278 L 300.5 310" fill="none" stroke="#cbd5e1" stroke-width="1.5"/><text x="548" y="300" class="mono" text-anchor="start">0x7e80 = BF16 2^126</text><rect x="86" y="350" width="360" height="30" rx="7" fill="#f8fafc" stroke="#b6c4d6"/><text x="266" y="370" class="mono" text-anchor="middle">mul.bf16x2 lane, lane, 0x7e807e80</text><path d="M 462 365 C 505 365, 505 365, 548 365" fill="none" stroke="#315a9f" stroke-width="2.2" marker-end="url(#arrow)"/><rect x="574" y="352" width="24" height="24" rx="5" fill="#ede9fe" stroke="#7c3aed" stroke-width="1.4"/><text x="586" y="368" class="bit" text-anchor="middle">S</text><rect x="601" y="352" width="24" height="24" rx="5" fill="#cffafe" stroke="#0891b2" stroke-width="1.4"/><text x="613" y="368" class="bit" text-anchor="middle">C</text><rect x="628" y="352" width="24" height="24" rx="5" fill="#cffafe" stroke="#0891b2" stroke-width="1.4"/><text x="640" y="368" class="bit" text-anchor="middle">C</text><rect x="655" y="352" width="24" height="24" rx="5" fill="#cffafe" stroke="#0891b2" stroke-width="1.4"/><text x="667" y="368" class="bit" text-anchor="middle">C</text><rect x="682" y="352" width="24" height="24" rx="5" fill="#cffafe" stroke="#0891b2" stroke-width="1.4"/><text x="694" y="368" class="bit" text-anchor="middle">C</text><rect x="709" y="352" width="24" height="24" rx="5" fill="#cffafe" stroke="#0891b2" stroke-width="1.4"/><text x="721" y="368" class="bit" text-anchor="middle">C</text><rect x="736" y="352" width="24" height="24" rx="5" fill="#cffafe" stroke="#0891b2" stroke-width="1.4"/><text x="748" y="368" class="bit" text-anchor="middle">C</text><rect x="763" y="352" width="24" height="24" rx="5" fill="#ede9fe" stroke="#7c3aed" stroke-width="1.4"/><text x="775" y="368" class="bit" text-anchor="middle">E</text><rect x="790" y="352" width="24" height="24" rx="5" fill="#ede9fe" stroke="#7c3aed" stroke-width="1.4"/><text x="802" y="368" class="bit" text-anchor="middle">E</text><rect x="817" y="352" width="24" height="24" rx="5" fill="#ede9fe" stroke="#7c3aed" stroke-width="1.4"/><text x="829" y="368" class="bit" text-anchor="middle">M</text><rect x="844" y="352" width="24" height="24" rx="5" fill="#f1f5f9" stroke="#94a3b8" stroke-width="1.4"/><text x="856" y="368" class="bit" text-anchor="middle">0</text><rect x="871" y="352" width="24" height="24" rx="5" fill="#f1f5f9" stroke="#94a3b8" stroke-width="1.4"/><text x="883" y="368" class="bit" text-anchor="middle">0</text><rect x="898" y="352" width="24" height="24" rx="5" fill="#f1f5f9" stroke="#94a3b8" stroke-width="1.4"/><text x="910" y="368" class="bit" text-anchor="middle">0</text><rect x="925" y="352" width="24" height="24" rx="5" fill="#f1f5f9" stroke="#94a3b8" stroke-width="1.4"/><text x="937" y="368" class="bit" text-anchor="middle">0</text><rect x="952" y="352" width="24" height="24" rx="5" fill="#f1f5f9" stroke="#94a3b8" stroke-width="1.4"/><text x="964" y="368" class="bit" text-anchor="middle">0</text><rect x="979" y="352" width="24" height="24" rx="5" fill="#f1f5f9" stroke="#94a3b8" stroke-width="1.4"/><text x="991" y="368" class="bit" text-anchor="middle">0</text><path d="M 788.5 348 L 788.5 380" fill="none" stroke="#cbd5e1" stroke-width="1.5"/><text x="86" y="402" class="note" text-anchor="start">MXFP4 does not carry a separate bias field here; the multiply compensates how the compact exponent bits were placed into a BF16-shaped lane.</text>
</svg>
