<?xml version="1.0" encoding="UTF-8"?>
<svg xmlns="http://www.w3.org/2000/svg" width="1160" height="800" viewBox="0 0 1160 800" role="img" aria-labelledby="title desc">
<title id="title">Step 2: extract each FP4 value instruction by instruction</title>
<desc id="desc">Mask-friendly values use and/shift/and; value1 is split into sign, exponent, and mantissa before OR.</desc>
<!-- svg-source:excalidraw -->
<defs>
  <marker id="arrow" viewBox="0 0 10 10" refX="8" refY="5" markerWidth="7" markerHeight="7" orient="auto-start-reverse"><path d="M 0 0 L 10 5 L 0 10 z" fill="#315a9f"/></marker>
  <style>
    .title{font:700 28px Inter,ui-sans-serif,system-ui,sans-serif;fill:#17212b}
    .subtitle{font:500 15px Inter,ui-sans-serif,system-ui,sans-serif;fill:#64748b}
    .label{font:700 14px Inter,ui-sans-serif,system-ui,sans-serif;fill:#17212b}
    .note{font:500 13px Inter,ui-sans-serif,system-ui,sans-serif;fill:#64748b}
    .mono{font:600 13px ui-monospace,SFMono-Regular,Menlo,Consolas,monospace;fill:#334155}
    .bit{font:700 11px ui-monospace,SFMono-Regular,Menlo,Consolas,monospace;fill:#0f172a}
    .tiny{font:600 10px Inter,ui-sans-serif,system-ui,sans-serif;fill:#64748b}
    .chipText{font:700 12px ui-monospace,SFMono-Regular,Menlo,Consolas,monospace;fill:#1e293b}
  </style>
</defs>
<rect width="1160" height="800" rx="18" fill="#f8fbff"/>
<text x="44" y="58" class="title">Step 2: extract each FP4 value instruction by instruction</text>
<text x="46" y="84" class="subtitle">Mask-friendly values use and/shift/and; value1 is split into sign, exponent, and mantissa before OR.</text>
<rect x="44" y="112" width="1072" height="642" rx="12" fill="#ffffff" stroke="#8b5cf6" stroke-width="2"/><text x="68" y="142" class="label" text-anchor="start">Shared input register</text><rect x="86" y="162" width="24" height="24" rx="5" fill="#ede9fe" stroke="#7c3aed" stroke-width="1.4"/><text x="98" y="178" class="bit" text-anchor="middle">S2</text><rect x="113" y="162" width="24" height="24" rx="5" fill="#dbeafe" stroke="#2563eb" stroke-width="1.4"/><text x="125" y="178" class="bit" text-anchor="middle">S1</text><rect x="140" y="162" width="24" height="24" rx="5" fill="#dbeafe" stroke="#2563eb" stroke-width="1.4"/><text x="152" y="178" class="bit" text-anchor="middle">M1</text><rect x="167" y="162" width="24" height="24" rx="5" fill="#dcfce7" stroke="#16a34a" stroke-width="1.4"/><text x="179" y="178" class="bit" text-anchor="middle">S3</text><rect x="194" y="162" width="24" height="24" rx="5" fill="#dbeafe" stroke="#2563eb" stroke-width="1.4"/><text x="206" y="178" class="bit" text-anchor="middle">E1</text><rect x="221" y="162" width="24" height="24" rx="5" fill="#dbeafe" stroke="#2563eb" stroke-width="1.4"/><text x="233" y="178" class="bit" text-anchor="middle">E1</text><rect x="248" y="162" width="24" height="24" rx="5" fill="#ffedd5" stroke="#c2410c" stroke-width="1.4"/><text x="260" y="178" class="bit" text-anchor="middle">S4</text><rect x="275" y="162" width="24" height="24" rx="5" fill="#ede9fe" stroke="#7c3aed" stroke-width="1.4"/><text x="287" y="178" class="bit" text-anchor="middle">E2</text><rect x="302" y="162" width="24" height="24" rx="5" fill="#ede9fe" stroke="#7c3aed" stroke-width="1.4"/><text x="314" y="178" class="bit" text-anchor="middle">E2</text><rect x="329" y="162" width="24" height="24" rx="5" fill="#ede9fe" stroke="#7c3aed" stroke-width="1.4"/><text x="341" y="178" class="bit" text-anchor="middle">M2</text><rect x="356" y="162" width="24" height="24" rx="5" fill="#dcfce7" stroke="#16a34a" stroke-width="1.4"/><text x="368" y="178" class="bit" text-anchor="middle">E3</text><rect x="383" y="162" width="24" height="24" rx="5" fill="#dcfce7" stroke="#16a34a" stroke-width="1.4"/><text x="395" y="178" class="bit" text-anchor="middle">E3</text><rect x="410" y="162" width="24" height="24" rx="5" fill="#dcfce7" stroke="#16a34a" stroke-width="1.4"/><text x="422" y="178" class="bit" text-anchor="middle">M3</text><rect x="437" y="162" width="24" height="24" rx="5" fill="#ffedd5" stroke="#c2410c" stroke-width="1.4"/><text x="449" y="178" class="bit" text-anchor="middle">E4</text><rect x="464" y="162" width="24" height="24" rx="5" fill="#ffedd5" stroke="#c2410c" stroke-width="1.4"/><text x="476" y="178" class="bit" text-anchor="middle">E4</text><rect x="491" y="162" width="24" height="24" rx="5" fill="#ffedd5" stroke="#c2410c" stroke-width="1.4"/><text x="503" y="178" class="bit" text-anchor="middle">M4</text><path d="M 300.5 158 L 300.5 190" fill="none" stroke="#cbd5e1" stroke-width="1.5"/><rect x="68" y="224" width="1022" height="96" rx="12" fill="#ffffff" stroke="#7c3aed" stroke-width="2"/><text x="88" y="252" class="label" text-anchor="start">value2</text><rect x="180" y="236" width="220" height="30" rx="7" fill="#f8fafc" stroke="#b6c4d6"/><text x="290" y="256" class="mono" text-anchor="middle">and.b32 r0, x, mask</text><text x="430" y="256" class="note" text-anchor="start">direct mask: S2/E2/E2/M2 already line up</text><rect x="88" y="276" width="24" height="24" rx="5" fill="#ede9fe" stroke="#7c3aed" stroke-width="1.4"/><text x="100" y="292" class="bit" text-anchor="middle">S2</text><rect x="115" y="276" width="24" height="24" rx="5" fill="#f1f5f9" stroke="#94a3b8" stroke-width="1.4"/><text x="127" y="292" class="bit" text-anchor="middle">0</text><rect x="142" y="276" width="24" height="24" rx="5" fill="#f1f5f9" stroke="#94a3b8" stroke-width="1.4"/><text x="154" y="292" class="bit" text-anchor="middle">0</text><rect x="169" y="276" width="24" height="24" rx="5" fill="#f1f5f9" stroke="#94a3b8" stroke-width="1.4"/><text x="181" y="292" class="bit" text-anchor="middle">0</text><rect x="196" y="276" width="24" height="24" rx="5" fill="#f1f5f9" stroke="#94a3b8" stroke-width="1.4"/><text x="208" y="292" class="bit" text-anchor="middle">0</text><rect x="223" y="276" width="24" height="24" rx="5" fill="#f1f5f9" stroke="#94a3b8" stroke-width="1.4"/><text x="235" y="292" class="bit" text-anchor="middle">0</text><rect x="250" y="276" width="24" height="24" rx="5" fill="#ede9fe" stroke="#7c3aed" stroke-width="1.4"/><text x="262" y="292" class="bit" text-anchor="middle">E2</text><rect x="277" y="276" width="24" height="24" rx="5" fill="#ede9fe" stroke="#7c3aed" stroke-width="1.4"/><text x="289" y="292" class="bit" text-anchor="middle">E2</text><rect x="304" y="276" width="24" height="24" rx="5" fill="#ede9fe" stroke="#7c3aed" stroke-width="1.4"/><text x="316" y="292" class="bit" text-anchor="middle">M2</text><rect x="331" y="276" width="24" height="24" rx="5" fill="#f1f5f9" stroke="#94a3b8" stroke-width="1.4"/><text x="343" y="292" class="bit" text-anchor="middle">0</text><rect x="358" y="276" width="24" height="24" rx="5" fill="#f1f5f9" stroke="#94a3b8" stroke-width="1.4"/><text x="370" y="292" class="bit" text-anchor="middle">0</text><rect x="385" y="276" width="24" height="24" rx="5" fill="#f1f5f9" stroke="#94a3b8" stroke-width="1.4"/><text x="397" y="292" class="bit" text-anchor="middle">0</text><rect x="412" y="276" width="24" height="24" rx="5" fill="#f1f5f9" stroke="#94a3b8" stroke-width="1.4"/><text x="424" y="292" class="bit" text-anchor="middle">0</text><rect x="439" y="276" width="24" height="24" rx="5" fill="#f1f5f9" stroke="#94a3b8" stroke-width="1.4"/><text x="451" y="292" class="bit" text-anchor="middle">0</text><rect x="466" y="276" width="24" height="24" rx="5" fill="#f1f5f9" stroke="#94a3b8" stroke-width="1.4"/><text x="478" y="292" class="bit" text-anchor="middle">0</text><rect x="493" y="276" width="24" height="24" rx="5" fill="#f1f5f9" stroke="#94a3b8" stroke-width="1.4"/><text x="505" y="292" class="bit" text-anchor="middle">0</text><path d="M 302.5 272 L 302.5 304" fill="none" stroke="#cbd5e1" stroke-width="1.5"/><rect x="68" y="342" width="1022" height="96" rx="12" fill="#ffffff" stroke="#16a34a" stroke-width="2"/><text x="88" y="370" class="label" text-anchor="start">value3</text><rect x="180" y="354" width="220" height="30" rx="7" fill="#f8fafc" stroke="#b6c4d6"/><text x="290" y="374" class="mono" text-anchor="middle">shl.b32 b, x, 3</text><text x="430" y="374" class="note" text-anchor="start">move S3/E3/E3/M3 into maskable slots</text><rect x="88" y="394" width="24" height="24" rx="5" fill="#dcfce7" stroke="#16a34a" stroke-width="1.4"/><text x="100" y="410" class="bit" text-anchor="middle">S3</text><rect x="115" y="394" width="24" height="24" rx="5" fill="#f1f5f9" stroke="#94a3b8" stroke-width="1.4"/><text x="127" y="410" class="bit" text-anchor="middle">0</text><rect x="142" y="394" width="24" height="24" rx="5" fill="#f1f5f9" stroke="#94a3b8" stroke-width="1.4"/><text x="154" y="410" class="bit" text-anchor="middle">0</text><rect x="169" y="394" width="24" height="24" rx="5" fill="#f1f5f9" stroke="#94a3b8" stroke-width="1.4"/><text x="181" y="410" class="bit" text-anchor="middle">0</text><rect x="196" y="394" width="24" height="24" rx="5" fill="#f1f5f9" stroke="#94a3b8" stroke-width="1.4"/><text x="208" y="410" class="bit" text-anchor="middle">0</text><rect x="223" y="394" width="24" height="24" rx="5" fill="#f1f5f9" stroke="#94a3b8" stroke-width="1.4"/><text x="235" y="410" class="bit" text-anchor="middle">0</text><rect x="250" y="394" width="24" height="24" rx="5" fill="#dcfce7" stroke="#16a34a" stroke-width="1.4"/><text x="262" y="410" class="bit" text-anchor="middle">E3</text><rect x="277" y="394" width="24" height="24" rx="5" fill="#dcfce7" stroke="#16a34a" stroke-width="1.4"/><text x="289" y="410" class="bit" text-anchor="middle">E3</text><rect x="304" y="394" width="24" height="24" rx="5" fill="#dcfce7" stroke="#16a34a" stroke-width="1.4"/><text x="316" y="410" class="bit" text-anchor="middle">M3</text><rect x="331" y="394" width="24" height="24" rx="5" fill="#f1f5f9" stroke="#94a3b8" stroke-width="1.4"/><text x="343" y="410" class="bit" text-anchor="middle">0</text><rect x="358" y="394" width="24" height="24" rx="5" fill="#f1f5f9" stroke="#94a3b8" stroke-width="1.4"/><text x="370" y="410" class="bit" text-anchor="middle">0</text><rect x="385" y="394" width="24" height="24" rx="5" fill="#f1f5f9" stroke="#94a3b8" stroke-width="1.4"/><text x="397" y="410" class="bit" text-anchor="middle">0</text><rect x="412" y="394" width="24" height="24" rx="5" fill="#f1f5f9" stroke="#94a3b8" stroke-width="1.4"/><text x="424" y="410" class="bit" text-anchor="middle">0</text><rect x="439" y="394" width="24" height="24" rx="5" fill="#f1f5f9" stroke="#94a3b8" stroke-width="1.4"/><text x="451" y="410" class="bit" text-anchor="middle">0</text><rect x="466" y="394" width="24" height="24" rx="5" fill="#f1f5f9" stroke="#94a3b8" stroke-width="1.4"/><text x="478" y="410" class="bit" text-anchor="middle">0</text><rect x="493" y="394" width="24" height="24" rx="5" fill="#f1f5f9" stroke="#94a3b8" stroke-width="1.4"/><text x="505" y="410" class="bit" text-anchor="middle">0</text><path d="M 302.5 390 L 302.5 422" fill="none" stroke="#cbd5e1" stroke-width="1.5"/><rect x="68" y="460" width="1022" height="96" rx="12" fill="#ffffff" stroke="#c2410c" stroke-width="2"/><text x="88" y="488" class="label" text-anchor="start">value4</text><rect x="180" y="472" width="220" height="30" rx="7" fill="#f8fafc" stroke="#b6c4d6"/><text x="290" y="492" class="mono" text-anchor="middle">shl.b32 c, x, 6</text><text x="430" y="492" class="note" text-anchor="start">move S4/E4/E4/M4 into maskable slots</text><rect x="88" y="512" width="24" height="24" rx="5" fill="#ffedd5" stroke="#c2410c" stroke-width="1.4"/><text x="100" y="528" class="bit" text-anchor="middle">S4</text><rect x="115" y="512" width="24" height="24" rx="5" fill="#f1f5f9" stroke="#94a3b8" stroke-width="1.4"/><text x="127" y="528" class="bit" text-anchor="middle">0</text><rect x="142" y="512" width="24" height="24" rx="5" fill="#f1f5f9" stroke="#94a3b8" stroke-width="1.4"/><text x="154" y="528" class="bit" text-anchor="middle">0</text><rect x="169" y="512" width="24" height="24" rx="5" fill="#f1f5f9" stroke="#94a3b8" stroke-width="1.4"/><text x="181" y="528" class="bit" text-anchor="middle">0</text><rect x="196" y="512" width="24" height="24" rx="5" fill="#f1f5f9" stroke="#94a3b8" stroke-width="1.4"/><text x="208" y="528" class="bit" text-anchor="middle">0</text><rect x="223" y="512" width="24" height="24" rx="5" fill="#f1f5f9" stroke="#94a3b8" stroke-width="1.4"/><text x="235" y="528" class="bit" text-anchor="middle">0</text><rect x="250" y="512" width="24" height="24" rx="5" fill="#ffedd5" stroke="#c2410c" stroke-width="1.4"/><text x="262" y="528" class="bit" text-anchor="middle">E4</text><rect x="277" y="512" width="24" height="24" rx="5" fill="#ffedd5" stroke="#c2410c" stroke-width="1.4"/><text x="289" y="528" class="bit" text-anchor="middle">E4</text><rect x="304" y="512" width="24" height="24" rx="5" fill="#ffedd5" stroke="#c2410c" stroke-width="1.4"/><text x="316" y="528" class="bit" text-anchor="middle">M4</text><rect x="331" y="512" width="24" height="24" rx="5" fill="#f1f5f9" stroke="#94a3b8" stroke-width="1.4"/><text x="343" y="528" class="bit" text-anchor="middle">0</text><rect x="358" y="512" width="24" height="24" rx="5" fill="#f1f5f9" stroke="#94a3b8" stroke-width="1.4"/><text x="370" y="528" class="bit" text-anchor="middle">0</text><rect x="385" y="512" width="24" height="24" rx="5" fill="#f1f5f9" stroke="#94a3b8" stroke-width="1.4"/><text x="397" y="528" class="bit" text-anchor="middle">0</text><rect x="412" y="512" width="24" height="24" rx="5" fill="#f1f5f9" stroke="#94a3b8" stroke-width="1.4"/><text x="424" y="528" class="bit" text-anchor="middle">0</text><rect x="439" y="512" width="24" height="24" rx="5" fill="#f1f5f9" stroke="#94a3b8" stroke-width="1.4"/><text x="451" y="528" class="bit" text-anchor="middle">0</text><rect x="466" y="512" width="24" height="24" rx="5" fill="#f1f5f9" stroke="#94a3b8" stroke-width="1.4"/><text x="478" y="528" class="bit" text-anchor="middle">0</text><rect x="493" y="512" width="24" height="24" rx="5" fill="#f1f5f9" stroke="#94a3b8" stroke-width="1.4"/><text x="505" y="528" class="bit" text-anchor="middle">0</text><path d="M 302.5 508 L 302.5 540" fill="none" stroke="#cbd5e1" stroke-width="1.5"/><rect x="68" y="578" width="1022" height="202" rx="12" fill="#ffffff" stroke="#2563eb" stroke-width="2"/><text x="88" y="606" class="label" text-anchor="start">value1</text><text x="180" y="607" class="mono" text-anchor="start">split field extraction, then OR</text><text x="88" y="646" class="mono" text-anchor="start">shl.b32 d0, x, 1; and sign</text><rect x="390" y="630" width="24" height="24" rx="5" fill="#dbeafe" stroke="#2563eb" stroke-width="1.4"/><text x="402" y="646" class="bit" text-anchor="middle">S1</text><rect x="417" y="630" width="24" height="24" rx="5" fill="#f1f5f9" stroke="#94a3b8" stroke-width="1.4"/><text x="429" y="646" class="bit" text-anchor="middle">0</text><rect x="444" y="630" width="24" height="24" rx="5" fill="#f1f5f9" stroke="#94a3b8" stroke-width="1.4"/><text x="456" y="646" class="bit" text-anchor="middle">0</text><rect x="471" y="630" width="24" height="24" rx="5" fill="#f1f5f9" stroke="#94a3b8" stroke-width="1.4"/><text x="483" y="646" class="bit" text-anchor="middle">0</text><rect x="498" y="630" width="24" height="24" rx="5" fill="#f1f5f9" stroke="#94a3b8" stroke-width="1.4"/><text x="510" y="646" class="bit" text-anchor="middle">0</text><rect x="525" y="630" width="24" height="24" rx="5" fill="#f1f5f9" stroke="#94a3b8" stroke-width="1.4"/><text x="537" y="646" class="bit" text-anchor="middle">0</text><rect x="552" y="630" width="24" height="24" rx="5" fill="#f1f5f9" stroke="#94a3b8" stroke-width="1.4"/><text x="564" y="646" class="bit" text-anchor="middle">0</text><rect x="579" y="630" width="24" height="24" rx="5" fill="#f1f5f9" stroke="#94a3b8" stroke-width="1.4"/><text x="591" y="646" class="bit" text-anchor="middle">0</text><rect x="606" y="630" width="24" height="24" rx="5" fill="#f1f5f9" stroke="#94a3b8" stroke-width="1.4"/><text x="618" y="646" class="bit" text-anchor="middle">0</text><rect x="633" y="630" width="24" height="24" rx="5" fill="#f1f5f9" stroke="#94a3b8" stroke-width="1.4"/><text x="645" y="646" class="bit" text-anchor="middle">0</text><rect x="660" y="630" width="24" height="24" rx="5" fill="#f1f5f9" stroke="#94a3b8" stroke-width="1.4"/><text x="672" y="646" class="bit" text-anchor="middle">0</text><rect x="687" y="630" width="24" height="24" rx="5" fill="#f1f5f9" stroke="#94a3b8" stroke-width="1.4"/><text x="699" y="646" class="bit" text-anchor="middle">0</text><rect x="714" y="630" width="24" height="24" rx="5" fill="#f1f5f9" stroke="#94a3b8" stroke-width="1.4"/><text x="726" y="646" class="bit" text-anchor="middle">0</text><rect x="741" y="630" width="24" height="24" rx="5" fill="#f1f5f9" stroke="#94a3b8" stroke-width="1.4"/><text x="753" y="646" class="bit" text-anchor="middle">0</text><rect x="768" y="630" width="24" height="24" rx="5" fill="#f1f5f9" stroke="#94a3b8" stroke-width="1.4"/><text x="780" y="646" class="bit" text-anchor="middle">0</text><rect x="795" y="630" width="24" height="24" rx="5" fill="#f1f5f9" stroke="#94a3b8" stroke-width="1.4"/><text x="807" y="646" class="bit" text-anchor="middle">0</text><path d="M 604.5 626 L 604.5 658" fill="none" stroke="#cbd5e1" stroke-width="1.5"/><text x="850" y="646" class="note" text-anchor="start">sign bit</text><text x="88" y="682" class="mono" text-anchor="start">shr.b32 d2, x, 3; and exponent</text><rect x="390" y="666" width="24" height="24" rx="5" fill="#f1f5f9" stroke="#94a3b8" stroke-width="1.4"/><text x="402" y="682" class="bit" text-anchor="middle">0</text><rect x="417" y="666" width="24" height="24" rx="5" fill="#f1f5f9" stroke="#94a3b8" stroke-width="1.4"/><text x="429" y="682" class="bit" text-anchor="middle">0</text><rect x="444" y="666" width="24" height="24" rx="5" fill="#f1f5f9" stroke="#94a3b8" stroke-width="1.4"/><text x="456" y="682" class="bit" text-anchor="middle">0</text><rect x="471" y="666" width="24" height="24" rx="5" fill="#f1f5f9" stroke="#94a3b8" stroke-width="1.4"/><text x="483" y="682" class="bit" text-anchor="middle">0</text><rect x="498" y="666" width="24" height="24" rx="5" fill="#f1f5f9" stroke="#94a3b8" stroke-width="1.4"/><text x="510" y="682" class="bit" text-anchor="middle">0</text><rect x="525" y="666" width="24" height="24" rx="5" fill="#f1f5f9" stroke="#94a3b8" stroke-width="1.4"/><text x="537" y="682" class="bit" text-anchor="middle">0</text><rect x="552" y="666" width="24" height="24" rx="5" fill="#dbeafe" stroke="#2563eb" stroke-width="1.4"/><text x="564" y="682" class="bit" text-anchor="middle">E1</text><rect x="579" y="666" width="24" height="24" rx="5" fill="#dbeafe" stroke="#2563eb" stroke-width="1.4"/><text x="591" y="682" class="bit" text-anchor="middle">E1</text><rect x="606" y="666" width="24" height="24" rx="5" fill="#f1f5f9" stroke="#94a3b8" stroke-width="1.4"/><text x="618" y="682" class="bit" text-anchor="middle">0</text><rect x="633" y="666" width="24" height="24" rx="5" fill="#f1f5f9" stroke="#94a3b8" stroke-width="1.4"/><text x="645" y="682" class="bit" text-anchor="middle">0</text><rect x="660" y="666" width="24" height="24" rx="5" fill="#f1f5f9" stroke="#94a3b8" stroke-width="1.4"/><text x="672" y="682" class="bit" text-anchor="middle">0</text><rect x="687" y="666" width="24" height="24" rx="5" fill="#f1f5f9" stroke="#94a3b8" stroke-width="1.4"/><text x="699" y="682" class="bit" text-anchor="middle">0</text><rect x="714" y="666" width="24" height="24" rx="5" fill="#f1f5f9" stroke="#94a3b8" stroke-width="1.4"/><text x="726" y="682" class="bit" text-anchor="middle">0</text><rect x="741" y="666" width="24" height="24" rx="5" fill="#f1f5f9" stroke="#94a3b8" stroke-width="1.4"/><text x="753" y="682" class="bit" text-anchor="middle">0</text><rect x="768" y="666" width="24" height="24" rx="5" fill="#f1f5f9" stroke="#94a3b8" stroke-width="1.4"/><text x="780" y="682" class="bit" text-anchor="middle">0</text><rect x="795" y="666" width="24" height="24" rx="5" fill="#f1f5f9" stroke="#94a3b8" stroke-width="1.4"/><text x="807" y="682" class="bit" text-anchor="middle">0</text><path d="M 604.5 662 L 604.5 694" fill="none" stroke="#cbd5e1" stroke-width="1.5"/><text x="850" y="682" class="note" text-anchor="start">exponent bits</text><text x="88" y="718" class="mono" text-anchor="start">shr.b32 d5, x, 7; and mantissa</text><rect x="390" y="702" width="24" height="24" rx="5" fill="#f1f5f9" stroke="#94a3b8" stroke-width="1.4"/><text x="402" y="718" class="bit" text-anchor="middle">0</text><rect x="417" y="702" width="24" height="24" rx="5" fill="#f1f5f9" stroke="#94a3b8" stroke-width="1.4"/><text x="429" y="718" class="bit" text-anchor="middle">0</text><rect x="444" y="702" width="24" height="24" rx="5" fill="#f1f5f9" stroke="#94a3b8" stroke-width="1.4"/><text x="456" y="718" class="bit" text-anchor="middle">0</text><rect x="471" y="702" width="24" height="24" rx="5" fill="#f1f5f9" stroke="#94a3b8" stroke-width="1.4"/><text x="483" y="718" class="bit" text-anchor="middle">0</text><rect x="498" y="702" width="24" height="24" rx="5" fill="#f1f5f9" stroke="#94a3b8" stroke-width="1.4"/><text x="510" y="718" class="bit" text-anchor="middle">0</text><rect x="525" y="702" width="24" height="24" rx="5" fill="#f1f5f9" stroke="#94a3b8" stroke-width="1.4"/><text x="537" y="718" class="bit" text-anchor="middle">0</text><rect x="552" y="702" width="24" height="24" rx="5" fill="#f1f5f9" stroke="#94a3b8" stroke-width="1.4"/><text x="564" y="718" class="bit" text-anchor="middle">0</text><rect x="579" y="702" width="24" height="24" rx="5" fill="#f1f5f9" stroke="#94a3b8" stroke-width="1.4"/><text x="591" y="718" class="bit" text-anchor="middle">0</text><rect x="606" y="702" width="24" height="24" rx="5" fill="#dbeafe" stroke="#2563eb" stroke-width="1.4"/><text x="618" y="718" class="bit" text-anchor="middle">M1</text><rect x="633" y="702" width="24" height="24" rx="5" fill="#f1f5f9" stroke="#94a3b8" stroke-width="1.4"/><text x="645" y="718" class="bit" text-anchor="middle">0</text><rect x="660" y="702" width="24" height="24" rx="5" fill="#f1f5f9" stroke="#94a3b8" stroke-width="1.4"/><text x="672" y="718" class="bit" text-anchor="middle">0</text><rect x="687" y="702" width="24" height="24" rx="5" fill="#f1f5f9" stroke="#94a3b8" stroke-width="1.4"/><text x="699" y="718" class="bit" text-anchor="middle">0</text><rect x="714" y="702" width="24" height="24" rx="5" fill="#f1f5f9" stroke="#94a3b8" stroke-width="1.4"/><text x="726" y="718" class="bit" text-anchor="middle">0</text><rect x="741" y="702" width="24" height="24" rx="5" fill="#f1f5f9" stroke="#94a3b8" stroke-width="1.4"/><text x="753" y="718" class="bit" text-anchor="middle">0</text><rect x="768" y="702" width="24" height="24" rx="5" fill="#f1f5f9" stroke="#94a3b8" stroke-width="1.4"/><text x="780" y="718" class="bit" text-anchor="middle">0</text><rect x="795" y="702" width="24" height="24" rx="5" fill="#f1f5f9" stroke="#94a3b8" stroke-width="1.4"/><text x="807" y="718" class="bit" text-anchor="middle">0</text><path d="M 604.5 698 L 604.5 730" fill="none" stroke="#cbd5e1" stroke-width="1.5"/><text x="850" y="718" class="note" text-anchor="start">mantissa bit</text><text x="88" y="754" class="mono" text-anchor="start">or.b32 sign | exponent | mantissa</text><rect x="390" y="738" width="24" height="24" rx="5" fill="#dbeafe" stroke="#2563eb" stroke-width="1.4"/><text x="402" y="754" class="bit" text-anchor="middle">S1</text><rect x="417" y="738" width="24" height="24" rx="5" fill="#f1f5f9" stroke="#94a3b8" stroke-width="1.4"/><text x="429" y="754" class="bit" text-anchor="middle">0</text><rect x="444" y="738" width="24" height="24" rx="5" fill="#f1f5f9" stroke="#94a3b8" stroke-width="1.4"/><text x="456" y="754" class="bit" text-anchor="middle">0</text><rect x="471" y="738" width="24" height="24" rx="5" fill="#f1f5f9" stroke="#94a3b8" stroke-width="1.4"/><text x="483" y="754" class="bit" text-anchor="middle">0</text><rect x="498" y="738" width="24" height="24" rx="5" fill="#f1f5f9" stroke="#94a3b8" stroke-width="1.4"/><text x="510" y="754" class="bit" text-anchor="middle">0</text><rect x="525" y="738" width="24" height="24" rx="5" fill="#f1f5f9" stroke="#94a3b8" stroke-width="1.4"/><text x="537" y="754" class="bit" text-anchor="middle">0</text><rect x="552" y="738" width="24" height="24" rx="5" fill="#dbeafe" stroke="#2563eb" stroke-width="1.4"/><text x="564" y="754" class="bit" text-anchor="middle">E1</text><rect x="579" y="738" width="24" height="24" rx="5" fill="#dbeafe" stroke="#2563eb" stroke-width="1.4"/><text x="591" y="754" class="bit" text-anchor="middle">E1</text><rect x="606" y="738" width="24" height="24" rx="5" fill="#dbeafe" stroke="#2563eb" stroke-width="1.4"/><text x="618" y="754" class="bit" text-anchor="middle">M1</text><rect x="633" y="738" width="24" height="24" rx="5" fill="#f1f5f9" stroke="#94a3b8" stroke-width="1.4"/><text x="645" y="754" class="bit" text-anchor="middle">0</text><rect x="660" y="738" width="24" height="24" rx="5" fill="#f1f5f9" stroke="#94a3b8" stroke-width="1.4"/><text x="672" y="754" class="bit" text-anchor="middle">0</text><rect x="687" y="738" width="24" height="24" rx="5" fill="#f1f5f9" stroke="#94a3b8" stroke-width="1.4"/><text x="699" y="754" class="bit" text-anchor="middle">0</text><rect x="714" y="738" width="24" height="24" rx="5" fill="#f1f5f9" stroke="#94a3b8" stroke-width="1.4"/><text x="726" y="754" class="bit" text-anchor="middle">0</text><rect x="741" y="738" width="24" height="24" rx="5" fill="#f1f5f9" stroke="#94a3b8" stroke-width="1.4"/><text x="753" y="754" class="bit" text-anchor="middle">0</text><rect x="768" y="738" width="24" height="24" rx="5" fill="#f1f5f9" stroke="#94a3b8" stroke-width="1.4"/><text x="780" y="754" class="bit" text-anchor="middle">0</text><rect x="795" y="738" width="24" height="24" rx="5" fill="#f1f5f9" stroke="#94a3b8" stroke-width="1.4"/><text x="807" y="754" class="bit" text-anchor="middle">0</text><path d="M 604.5 734 L 604.5 766" fill="none" stroke="#cbd5e1" stroke-width="1.5"/><text x="850" y="754" class="note" text-anchor="start">BF16-shaped shell</text>
</svg>
