<svg xmlns="http://www.w3.org/2000/svg" viewBox="0 0 960 560" role="img" aria-labelledby="title desc">
  <title id="title">Strong scaling versus weak scaling</title>
  <desc id="desc">A two-panel diagram comparing fixed per-user workload in strong scaling with growing per-request workload in weak scaling for LLM systems.</desc>
  <rect width="960" height="560" fill="#f8fafc"/>
  <text x="70" y="46" fill="#172033" font-family="Inter, Arial, sans-serif" font-size="24" font-weight="700">Strong scaling optimizes fixed work; weak scaling optimizes growing work</text>
  <text x="70" y="76" fill="#5d6b82" font-family="Inter, Arial, sans-serif" font-size="14">AI infra leverage comes from the right side: work per request grows, and agents can generate many requests per user goal.</text>

  <rect x="70" y="112" width="390" height="348" rx="8" fill="#ffffff" stroke="#d7dee8"/>
  <rect x="500" y="112" width="390" height="348" rx="8" fill="#ffffff" stroke="#d7dee8"/>

  <text x="102" y="150" fill="#235f99" font-family="Inter, Arial, sans-serif" font-size="18" font-weight="700">Strong scaling</text>
  <text x="532" y="150" fill="#8d302a" font-family="Inter, Arial, sans-serif" font-size="18" font-weight="700">Weak scaling</text>

  <g font-family="Inter, Arial, sans-serif" font-size="13" fill="#5d6b82">
    <text x="102" y="178">pre-LLM apps: video, feed, game session</text>
    <text x="532" y="178">LLM apps: bigger model, longer context, more steps</text>
  </g>

  <g stroke="#9aa7b8" stroke-width="2">
    <line x1="118" y1="388" x2="420" y2="388"/>
    <line x1="118" y1="388" x2="118" y2="214"/>
    <line x1="548" y1="388" x2="850" y2="388"/>
    <line x1="548" y1="388" x2="548" y2="214"/>
  </g>

  <g stroke="#e5ebf3" stroke-width="1">
    <line x1="118" y1="330" x2="420" y2="330"/>
    <line x1="118" y1="272" x2="420" y2="272"/>
    <line x1="548" y1="330" x2="850" y2="330"/>
    <line x1="548" y1="272" x2="850" y2="272"/>
  </g>

  <text x="104" y="410" fill="#5d6b82" font-family="Inter, Arial, sans-serif" font-size="12">hardware P</text>
  <text x="534" y="410" fill="#5d6b82" font-family="Inter, Arial, sans-serif" font-size="12">hardware P</text>
  <text x="88" y="226" fill="#5d6b82" font-family="Inter, Arial, sans-serif" font-size="12" transform="rotate(-90 88 226)">work per request</text>
  <text x="518" y="226" fill="#5d6b82" font-family="Inter, Arial, sans-serif" font-size="12" transform="rotate(-90 518 226)">work per request</text>

  <path d="M118 302 L420 302" fill="none" stroke="#2f80ed" stroke-width="5" stroke-linecap="round"/>
  <path d="M548 374 C626 345 704 296 850 222" fill="none" stroke="#d1495b" stroke-width="5" stroke-linecap="round"/>

  <g fill="#ffffff" stroke-width="3">
    <circle cx="118" cy="302" r="6" stroke="#2f80ed"/>
    <circle cx="420" cy="302" r="6" stroke="#2f80ed"/>
    <circle cx="548" cy="374" r="6" stroke="#d1495b"/>
    <circle cx="850" cy="222" r="6" stroke="#d1495b"/>
  </g>

  <rect x="130" y="224" width="216" height="52" rx="8" fill="#f0f7ff" stroke="#6ba9e8"/>
  <text x="148" y="247" fill="#235f99" font-family="Inter, Arial, sans-serif" font-size="13" font-weight="700">per-user work stays bounded</text>
  <text x="148" y="267" fill="#235f99" font-family="Inter, Arial, sans-serif" font-size="12">W_pre ≈ O(1)</text>

  <rect x="592" y="206" width="224" height="92" rx="8" fill="#fff4f2" stroke="#dd7a74"/>
  <text x="610" y="241" fill="#8d302a" font-family="Inter, Arial, sans-serif" font-size="13" font-weight="700">workload grows with demand</text>
  <text x="610" y="261" fill="#8d302a" font-family="Inter, Arial, sans-serif" font-size="12">W_post ≈ O(M · T · S)</text>
  <text x="610" y="280" fill="#8d302a" font-family="Inter, Arial, sans-serif" font-size="12">R_post ≈ R_user + A · R_agent</text>

  <g font-family="Inter, Arial, sans-serif" font-size="13" fill="#172033">
    <text x="116" y="478" font-weight="700">Optimization effect:</text>
    <text x="116" y="501">constant-factor savings over traffic volume</text>
    <text x="548" y="478" font-weight="700">Optimization effect:</text>
    <text x="548" y="501">same percentage win is magnified by W and R</text>
  </g>

  <rect x="284" y="330" width="112" height="38" rx="7" fill="#ecfdf3" stroke="#63b97a"/>
  <text x="302" y="354" fill="#1f5d35" font-family="Inter, Arial, sans-serif" font-size="12" font-weight="700">save r%</text>
  <rect x="714" y="330" width="112" height="38" rx="7" fill="#ecfdf3" stroke="#63b97a"/>
  <text x="732" y="354" fill="#1f5d35" font-family="Inter, Arial, sans-serif" font-size="12" font-weight="700">save r%</text>
  <path d="M770 330 C795 304 812 279 828 248" fill="none" stroke="#63b97a" stroke-width="2" stroke-dasharray="5 5"/>
</svg>
